<?xml version="1.0" standalone="no"?>
<!DOCTYPE svg PUBLIC "-//W3C//DTD SVG 20010904//EN"
 "http://www.w3.org/TR/2001/REC-SVG-20010904/DTD/svg10.dtd">
<svg version="1.0" xmlns="http://www.w3.org/2000/svg"
 width="900.000000pt" height="789.000000pt" viewBox="0 0 900.000000 789.000000"
 preserveAspectRatio="xMidYMid meet">

<g transform="translate(0.000000,789.000000) scale(0.100000,-0.100000)"
fill="#000000" stroke="none">
<path d="M4451 7497 c-203 -18 -427 -141 -557 -305 -93 -118 -169 -258 -584
-1087 -424 -845 -617 -1245 -860 -1780 -200 -438 -223 -519 -223 -760 0 -187
25 -294 108 -460 119 -241 308 -413 564 -515 129 -52 228 -70 369 -71 390 0
732 167 1127 552 l141 138 95 -95 c259 -263 513 -439 752 -523 426 -150 854
-62 1151 235 172 172 268 371 311 648 39 248 -4 408 -255 941 -23 50 -89 189
-145 310 -314 671 -984 2018 -1133 2275 -157 271 -337 421 -577 479 -97 24
-172 29 -284 18z m263 -347 c120 -41 204 -107 284 -223 132 -191 987 -1924
1402 -2842 125 -276 146 -361 137 -551 -4 -84 -12 -138 -27 -184 -70 -206
-203 -362 -385 -450 -122 -59 -190 -74 -335 -74 -161 1 -254 24 -416 105 -155
77 -297 184 -482 364 -138 134 -146 143 -132 162 8 11 50 65 92 120 283 368
468 749 518 1068 17 104 14 297 -5 385 -22 100 -101 260 -168 341 -65 78 -164
155 -263 204 -178 88 -419 112 -616 61 -300 -77 -520 -291 -600 -582 -29 -107
-31 -330 -5 -454 70 -328 281 -737 564 -1093 l54 -68 -65 -72 c-159 -177 -382
-353 -561 -442 -165 -82 -239 -100 -415 -100 -124 0 -156 3 -220 23 -243 77
-418 248 -500 492 -17 49 -23 97 -27 195 -8 212 9 260 290 860 476 1020 1159
2382 1272 2541 85 118 203 201 328 230 80 18 204 11 281 -16z m-25 -1805 c204
-54 345 -215 373 -428 38 -284 -117 -672 -446 -1119 -39 -54 -73 -97 -76 -98
-3 0 -40 46 -82 103 -344 465 -495 868 -434 1159 40 186 180 332 369 383 68
18 228 19 296 0z"/>
<path d="M3105 1996 c-117 -52 -120 -227 -4 -286 50 -26 96 -25 149 3 109 57
108 222 -1 277 -44 23 -101 25 -144 6z"/>
<path d="M4110 1315 l0 -695 99 0 c120 0 131 3 131 41 0 16 3 29 6 29 3 0 22
-13 42 -30 20 -16 57 -36 81 -45 54 -19 178 -19 247 -1 123 33 238 125 294
236 147 291 5 637 -295 715 -119 31 -243 14 -323 -45 -23 -16 -44 -30 -47 -30
-3 0 -4 117 -3 260 l3 260 -117 0 -118 0 0 -695z m588 10 c202 -110 167 -426
-54 -491 -103 -30 -200 -9 -271 59 l-33 31 0 166 0 166 33 31 c56 55 111 74
197 70 60 -3 87 -9 128 -32z"/>
<path d="M6160 1315 l0 -695 103 0 c109 0 127 6 127 47 0 30 11 29 40 -2 37
-40 119 -65 209 -65 245 0 434 165 473 412 38 251 -113 492 -347 553 -123 32
-261 11 -334 -51 -16 -13 -32 -24 -35 -24 -3 0 -6 117 -6 260 l0 260 -115 0
-115 0 0 -695z m589 10 c57 -31 100 -84 121 -149 17 -54 8 -161 -18 -212 -48
-94 -160 -152 -272 -141 -65 6 -111 26 -157 70 l-33 31 0 166 0 166 33 31 c56
55 111 74 197 70 60 -3 87 -9 129 -32z"/>
<path d="M2291 1565 c-124 -35 -235 -124 -291 -234 -131 -261 -35 -569 215
-688 70 -33 88 -37 179 -41 85 -3 110 -1 157 17 31 12 66 32 79 46 31 33 38
32 42 -7 l3 -33 113 -3 112 -3 0 471 0 470 -103 0 c-109 0 -127 -6 -127 -47 0
-27 -12 -30 -31 -7 -7 8 -36 27 -63 41 -65 33 -201 41 -285 18z m279 -230 c19
-9 50 -31 68 -48 l32 -31 0 -169 0 -169 -37 -34 c-55 -50 -109 -68 -195 -62
-109 7 -185 55 -234 148 -28 53 -26 191 3 246 29 54 96 111 153 129 57 19 164
14 210 -10z"/>
<path d="M3805 1563 c-22 -9 -59 -29 -82 -45 l-43 -29 0 24 c0 41 -17 47 -127
47 l-103 0 -1 -62 c0 -35 -1 -246 -2 -470 l-2 -408 118 0 117 0 0 329 0 330
33 25 c54 42 107 59 177 60 36 0 77 -3 93 -7 l27 -7 0 109 c0 104 -1 109 -22
115 -43 11 -143 5 -183 -11z"/>
<path d="M5523 1562 c-28 -10 -67 -30 -87 -45 -43 -34 -46 -34 -46 2 0 37 -11
41 -126 41 l-94 0 0 -470 0 -470 120 0 120 0 0 328 c0 328 0 329 23 349 47 44
109 67 177 68 83 0 126 -23 158 -85 21 -43 22 -53 22 -352 l0 -308 121 0 121
0 -4 343 c-4 302 -6 348 -23 395 -26 74 -91 144 -171 183 -56 28 -77 33 -162
36 -76 3 -108 0 -149 -15z"/>
<path d="M3058 1090 l-3 -470 118 0 117 0 0 470 0 470 -115 0 -115 0 -2 -470z"/>
</g>
</svg>
