<?xml version="1.0" standalone="no"?>
<!DOCTYPE svg PUBLIC "-//W3C//DTD SVG 20010904//EN"
 "http://www.w3.org/TR/2001/REC-SVG-20010904/DTD/svg10.dtd">
<svg version="1.0" xmlns="http://www.w3.org/2000/svg"
 width="800.000000pt" height="800.000000pt" viewBox="0 0 800.000000 800.000000"
 preserveAspectRatio="xMidYMid meet">

<g transform="translate(0.000000,800.000000) scale(0.100000,-0.100000)"
fill="#000000" stroke="none">
<path d="M2259 5830 c-24 -13 -44 -34 -58 -63 -21 -44 -21 -46 -19 -885 3
-831 3 -841 24 -868 38 -51 71 -69 129 -69 65 0 100 23 133 85 l22 44 0 817
c0 584 -3 826 -11 850 -32 95 -132 135 -220 89z"/>
<path d="M5595 5831 c-40 -24 -60 -49 -74 -90 -8 -24 -11 -265 -11 -850 l0
-817 23 -44 c27 -54 61 -80 113 -87 53 -7 105 16 140 63 l29 37 3 840 c2 838
2 840 -19 884 -36 75 -136 106 -204 64z"/>
<path d="M1428 5259 c-23 -12 -46 -35 -58 -59 -19 -37 -20 -58 -20 -440 0
-325 3 -406 14 -428 34 -65 106 -99 173 -80 49 13 71 29 94 67 18 30 19 58 19
445 0 413 0 413 -23 447 -44 66 -128 86 -199 48z"/>
<path d="M3105 5266 c-17 -7 -43 -28 -58 -45 l-27 -33 0 -421 c0 -400 1 -424
20 -454 69 -114 256 -74 275 59 3 24 5 215 3 425 -3 367 -4 383 -24 409 -48
64 -126 89 -189 60z"/>
<path d="M4757 5258 c-23 -14 -45 -38 -57 -63 -19 -39 -20 -62 -20 -433 0
-310 3 -399 14 -425 47 -110 203 -124 265 -23 20 32 21 45 21 448 0 415 0 415
-23 449 -44 67 -130 87 -200 47z"/>
<path d="M6435 5266 c-38 -17 -60 -41 -80 -89 -13 -30 -15 -96 -15 -409 0
-223 4 -388 10 -410 38 -135 221 -152 286 -26 11 22 14 103 14 428 0 382 -1
403 -20 440 -35 68 -123 98 -195 66z"/>
<path d="M610 4853 c-8 -3 -26 -15 -38 -27 -48 -43 -52 -62 -52 -271 0 -210 3
-227 53 -273 50 -47 144 -46 195 1 48 45 52 63 52 274 0 196 0 199 -25 236
-14 20 -39 44 -55 52 -28 15 -100 19 -130 8z"/>
<path d="M3908 4829 c-54 -44 -60 -75 -56 -301 l3 -197 34 -35 c77 -80 205
-59 247 41 10 24 14 83 14 220 0 159 -3 193 -18 223 -41 83 -154 108 -224 49z"/>
<path d="M7252 4840 c-67 -41 -72 -62 -72 -284 0 -185 1 -201 22 -237 26 -46
76 -72 137 -71 47 0 81 20 115 66 19 25 21 43 24 229 2 177 0 206 -15 237 -39
75 -139 104 -211 60z"/>
<path d="M1622 3415 c-80 -18 -193 -73 -255 -124 -147 -122 -219 -280 -220
-481 -1 -175 56 -322 168 -435 101 -102 190 -150 340 -182 87 -19 252 -12 345
14 l65 18 3 158 c1 86 -1 157 -5 157 -5 0 -33 -10 -63 -22 -46 -19 -75 -22
-180 -23 -120 0 -127 1 -179 30 -102 56 -161 158 -161 279 0 102 23 161 88
226 68 67 149 100 246 100 61 0 182 -27 223 -48 12 -7 24 -12 27 -12 3 0 6 72
6 160 l0 159 -52 16 c-75 23 -313 29 -396 10z"/>
<path d="M3514 3420 c-217 -46 -343 -223 -305 -428 28 -153 108 -221 370 -313
88 -31 131 -70 131 -118 0 -51 -38 -87 -110 -102 -67 -14 -251 -5 -330 16 -30
8 -56 15 -57 15 -2 0 -3 -62 -3 -139 l0 -138 78 -14 c43 -8 142 -14 227 -14
127 0 160 4 217 22 136 45 206 97 259 195 33 61 34 66 34 178 0 107 -2 118
-27 162 -60 101 -122 144 -293 203 -167 58 -206 95 -171 164 32 61 179 82 329
47 38 -9 72 -16 78 -16 5 0 9 55 9 128 l0 129 -52 12 c-65 16 -328 23 -384 11z"/>
<path d="M4830 3421 c-54 -10 -156 -51 -216 -86 -65 -38 -165 -144 -201 -211
-63 -118 -76 -176 -76 -319 0 -114 3 -139 26 -203 75 -209 230 -347 452 -402
76 -19 107 -22 200 -17 61 3 139 14 175 24 l65 18 3 158 c1 99 -1 157 -7 157
-6 0 -34 -10 -63 -22 -44 -18 -73 -22 -178 -22 -117 -1 -128 1 -175 26 -112
60 -168 153 -169 283 0 66 4 90 25 136 74 159 245 223 447 169 45 -12 85 -26
88 -31 3 -5 12 -9 20 -9 12 0 14 27 14 160 l0 159 -52 16 c-61 19 -307 29
-378 16z"/>
<path d="M6072 3420 c-184 -39 -347 -162 -430 -325 -65 -130 -83 -325 -41
-461 70 -228 225 -375 455 -434 216 -55 444 4 606 158 125 120 191 273 191
447 0 228 -106 418 -302 540 -88 54 -174 77 -311 81 -69 2 -145 -1 -168 -6z
m217 -306 c285 -71 328 -457 66 -592 -43 -22 -63 -26 -140 -26 -75 0 -97 3
-135 23 -109 56 -171 150 -178 272 -4 68 -1 84 22 135 51 111 105 158 216 188
71 19 72 19 149 0z"/>
<path d="M2490 2805 l0 -605 150 0 150 0 0 605 0 605 -150 0 -150 0 0 -605z"/>
<path d="M7180 2350 c0 -5 11 -10 25 -10 24 0 25 -2 25 -70 0 -40 4 -70 10
-70 6 0 10 30 10 70 0 68 1 70 24 70 14 0 28 5 31 10 4 6 -18 10 -59 10 -37 0
-66 -4 -66 -10z"/>
<path d="M7320 2281 c0 -92 17 -111 22 -23 l3 57 21 -55 c12 -30 27 -55 34
-55 7 0 19 20 27 45 23 69 33 71 33 7 0 -31 5 -57 10 -57 6 0 10 34 10 81 0
71 -2 80 -17 77 -12 -2 -25 -24 -38 -61 -11 -31 -22 -57 -25 -57 -3 0 -14 26
-25 57 -13 37 -26 59 -37 61 -16 3 -18 -6 -18 -77z"/>
</g>
</svg>
