<?xml version="1.0" standalone="no"?>
<!DOCTYPE svg PUBLIC "-//W3C//DTD SVG 20010904//EN"
 "http://www.w3.org/TR/2001/REC-SVG-20010904/DTD/svg10.dtd">
<svg version="1.0" xmlns="http://www.w3.org/2000/svg"
 width="800.000000pt" height="800.000000pt" viewBox="0 0 800.000000 800.000000"
 preserveAspectRatio="xMidYMid meet">

<g transform="translate(0.000000,800.000000) scale(0.100000,-0.100000)"
fill="#000000" stroke="none">
<path d="M2017 5594 c-4 -4 -7 -329 -8 -723 l-1 -716 -19 85 c-24 106 -101
265 -168 346 -153 187 -397 291 -729 310 -115 6 -318 -13 -427 -41 -400 -103
-614 -363 -655 -797 -19 -197 13 -420 80 -565 125 -270 385 -435 745 -473 451
-48 818 54 1002 279 51 63 111 179 120 234 l6 37 -205 0 -205 0 -12 -27 c-58
-128 -204 -233 -366 -264 -77 -15 -235 -12 -311 6 -246 57 -420 247 -443 483
l-7 72 798 0 799 0 -1 -387 -1 -388 194 -3 194 -2 6 52 c4 29 7 83 7 121 0 37
2 67 4 67 2 0 33 -28 68 -62 190 -183 514 -271 826 -223 154 24 267 65 386
142 138 89 275 261 331 414 l22 62 7 -84 c13 -149 60 -254 157 -349 139 -136
333 -200 604 -200 306 1 539 83 709 252 32 32 60 58 62 58 2 0 4 -33 4 -72 0
-40 3 -97 6 -125 l7 -53 181 0 181 0 -2 567 c-3 561 -11 727 -38 807 -24 68
-9 51 40 -46 26 -51 51 -97 55 -103 4 -5 51 -93 105 -195 122 -231 185 -350
247 -464 26 -49 48 -91 48 -92 0 -2 24 -48 54 -101 29 -54 79 -147 111 -208
31 -60 61 -114 66 -119 19 -21 6 -54 -90 -235 -54 -102 -129 -244 -166 -316
-38 -71 -72 -136 -78 -143 -8 -10 35 -12 218 -10 l227 3 112 220 c61 121 186
366 278 545 91 179 241 474 333 655 92 182 200 393 240 470 90 175 247 484
257 508 7 16 -7 17 -205 17 l-212 0 -339 -683 -339 -682 -341 683 -341 682
-232 0 c-128 0 -233 -2 -233 -4 0 -2 23 -49 52 -103 l51 -98 -49 50 c-81 84
-175 139 -299 178 -124 39 -338 62 -488 53 -232 -14 -365 -43 -507 -113 -114
-55 -217 -147 -260 -233 -27 -54 -60 -151 -60 -177 0 -10 43 -13 208 -13 l208
0 23 55 c43 103 153 179 301 207 93 17 283 4 368 -26 173 -60 262 -179 262
-350 l0 -73 -377 -6 c-391 -6 -471 -13 -638 -56 -213 -54 -368 -160 -430 -294
l-23 -48 6 129 c10 247 -49 462 -173 632 -36 49 -153 164 -200 197 -167 115
-380 170 -619 160 -272 -11 -475 -86 -617 -228 l-59 -59 -2 498 -3 497 -196 3
c-107 1 -198 -1 -202 -4z m-797 -990 c209 -63 346 -221 366 -422 l7 -72 -587
0 -586 0 0 23 c0 46 32 152 62 209 73 137 234 246 411 278 74 13 262 4 327
-16z m1965 1 c214 -45 375 -191 451 -410 27 -75 28 -90 28 -245 0 -148 -2
-172 -23 -230 -77 -212 -201 -344 -387 -412 -83 -30 -282 -37 -374 -13 -280
73 -460 329 -460 654 0 170 43 308 134 435 132 185 384 273 631 221z m2365
-780 c0 -190 -67 -336 -199 -435 -76 -57 -145 -86 -260 -110 -126 -26 -245
-26 -344 -1 -130 34 -203 86 -249 179 -32 66 -32 189 -1 248 79 149 287 198
851 202 l202 2 0 -85z"/>
</g>
</svg>
