<?xml version="1.0" standalone="no"?>
<!DOCTYPE svg PUBLIC "-//W3C//DTD SVG 20010904//EN"
 "http://www.w3.org/TR/2001/REC-SVG-20010904/DTD/svg10.dtd">
<svg version="1.0" xmlns="http://www.w3.org/2000/svg"
 width="360.000000pt" height="360.000000pt" viewBox="0 0 360.000000 360.000000"
 preserveAspectRatio="xMidYMid meet">

<g transform="translate(0.000000,360.000000) scale(0.100000,-0.100000)"
fill="#000000" stroke="none">
<path d="M320 1965 l0 -145 150 0 150 0 0 145 0 145 -150 0 -150 0 0 -145z"/>
<path d="M3025 1985 c-18 -18 -25 -35 -25 -65 0 -36 -2 -40 -25 -40 -20 0 -25
-5 -25 -26 0 -20 4 -25 23 -22 22 3 22 1 25 -109 l3 -113 30 0 31 0 -3 110
c-2 60 -1 110 4 110 4 0 27 0 52 0 l45 0 0 -90 c0 -107 14 -130 80 -130 35 0
40 3 40 24 0 19 -4 22 -24 19 -13 -3 -26 -1 -29 4 -3 4 -7 46 -8 93 l-3 85 32
-3 c29 -3 32 -1 32 22 0 23 -4 26 -35 26 l-35 0 6 40 c7 44 7 44 -30 30 -20
-7 -26 -16 -26 -40 l0 -31 -52 3 -53 3 3 35 c3 39 17 52 50 45 18 -5 22 -1 22
20 0 23 -4 25 -40 25 -30 0 -47 -7 -65 -25z"/>
<path d="M1147 1983 c-4 -3 -7 -89 -7 -190 l0 -183 30 0 30 0 0 147 c0 84 4
143 9 138 4 -6 25 -55 46 -110 50 -132 72 -175 90 -175 16 0 37 41 88 175 19
50 38 99 43 110 6 13 10 -35 12 -132 l3 -153 29 0 30 0 0 190 0 190 -40 0
c-46 0 -43 5 -110 -157 -26 -63 -51 -113 -56 -112 -5 2 -28 52 -52 113 -24 61
-47 121 -52 134 -8 17 -17 22 -48 22 -21 0 -42 -3 -45 -7z"/>
<path d="M1614 1976 c-11 -28 4 -48 33 -44 22 2 28 8 28 28 0 20 -6 26 -28 28
-18 2 -29 -2 -33 -12z"/>
<path d="M1620 1744 l0 -135 27 3 c22 2 27 8 26 31 -1 15 -1 74 -2 132 l-1
105 -25 0 -25 0 0 -136z"/>
<path d="M1784 1860 c-60 -39 -77 -139 -34 -199 26 -37 56 -51 110 -51 53 0
70 8 70 35 0 21 -2 22 -40 12 -35 -10 -43 -8 -67 9 -36 27 -48 74 -29 119 19
46 54 62 102 47 35 -10 35 -10 32 16 -3 25 -7 27 -58 30 -42 2 -63 -3 -86 -18z"/>
<path d="M1988 1778 c-4 -151 -2 -168 28 -168 23 0 24 2 24 83 0 104 13 131
63 135 32 3 37 7 37 28 0 20 -5 24 -30 24 -19 0 -34 -7 -42 -20 -7 -11 -16
-20 -20 -20 -5 0 -8 9 -8 20 0 15 -7 20 -24 20 -24 0 -25 -1 -28 -102z"/>
<path d="M2203 1859 c-79 -50 -68 -204 17 -239 18 -7 52 -10 82 -8 42 4 57 11
79 36 52 58 50 154 -3 204 -26 24 -38 28 -87 28 -39 0 -66 -6 -88 -21z m132
-44 c53 -52 19 -165 -50 -165 -14 0 -37 11 -50 25 -53 52 -19 165 50 165 14 0
37 -11 50 -25z"/>
<path d="M2487 1860 c-20 -16 -27 -31 -27 -54 0 -36 19 -58 72 -84 37 -19 50
-58 22 -69 -9 -3 -34 -2 -56 4 -36 10 -38 9 -38 -12 0 -27 17 -35 74 -35 119
0 132 121 18 161 -28 9 -33 16 -30 38 3 24 6 26 51 24 44 -1 48 0 45 20 -3 19
-10 22 -54 25 -39 2 -56 -2 -77 -18z"/>
<path d="M2733 1870 c-37 -15 -63 -68 -63 -130 0 -47 5 -61 28 -90 26 -30 35
-34 88 -37 36 -2 68 1 83 9 85 45 95 189 17 238 -36 21 -112 26 -153 10z m118
-49 c20 -16 24 -28 24 -76 0 -48 -4 -60 -24 -76 -30 -25 -62 -24 -95 2 -22 18
-26 28 -26 74 0 46 4 56 26 74 33 26 65 27 95 2z"/>
</g>
</svg>
